<svg xmlns="http://www.w3.org/2000/svg" viewBox="0 0 1900 400" width="1900" height="400" preserveAspectRatio="xMidYMid meet" style="width: 100%; height: 100%;"><defs><clipPath id="animationMask_EZ16NoH2jN"><rect width="1900" height="400" x="0" y="0"></rect></clipPath></defs><g clip-path="url(#animationMask_EZ16NoH2jN)"><g fill="rgb(219,219,219)" font-size="215" font-family="Continuum Bold" font-style="normal" font-weight="200" transform="matrix(1,0,0,1,514.5,381.5)" opacity="1"><path stroke-linecap="butt" stroke-linejoin="round" stroke-miterlimit="4" d=" M87.93499999999999,0 C106.28094999999999,0 116.53,-9.171899999999999 118.68,-27.52 C118.96595,-29.955949999999998 119.10999999999999,-31.82 119.10999999999999,-33.11 C119.10999999999999,-33.11 119.10999999999999,-117.175 119.10999999999999,-117.175 C119.10999999999999,-139.39095 108.36,-150.5 86.86,-150.5 C86.86,-150.5 9.889999999999999,-150.5 9.889999999999999,-150.5 C9.889999999999999,-150.5 9.889999999999999,0 9.889999999999999,0 C61.34595,0.5719 87.36094999999999,0.5719 87.93499999999999,0z M42.14,-32.464999999999996 C42.14,-32.464999999999996 42.14,-118.035 42.14,-118.035 C42.14,-118.035 75.25,-118.035 75.25,-118.035 C76.39595,-118.035 77.25595,-117.9619 77.83,-117.82 C83.70595,-116.96 86.645,-114.73689999999999 86.645,-111.155 C86.645,-111.155 86.645,-45.365 86.645,-45.365 C86.645,-44.505 86.57190000000001,-43.786899999999996 86.43,-43.215 C86,-38.48500000000001 85.21095,-35.6169 84.065,-34.615 C82.63095,-33.18095 79.765,-32.464999999999996 75.465,-32.464999999999996 C75.465,-32.464999999999996 42.14,-32.464999999999996 42.14,-32.464999999999996z M174.79500000000002,0 C174.79500000000002,0 237.14499999999998,0 237.14499999999998,0 C237.14499999999998,0 237.14499999999998,-32.464999999999996 237.14499999999998,-32.464999999999996 C237.14499999999998,-32.464999999999996 179.525,-32.464999999999996 179.525,-32.464999999999996 C173.935,-33.036899999999996 171.14,-36.40595 171.14,-42.57 C171.14,-42.57 171.14,-59.34 171.14,-59.34 C171.14,-59.34 237.14499999999998,-59.34 237.14499999999998,-59.34 C237.14499999999998,-59.34 237.14499999999998,-91.805 237.14499999999998,-91.805 C237.14499999999998,-91.805 171.14,-91.805 171.14,-91.805 C171.14,-91.805 171.14,-108.57499999999999 171.14,-108.57499999999999 C171.14,-113.305 173.0019,-116.2419 176.73,-117.39 C177.59,-117.82000000000001 178.235,-118.035 178.665,-118.035 C178.665,-118.035 237.14499999999998,-118.035 237.14499999999998,-118.035 C237.14499999999998,-118.035 237.14499999999998,-150.5 237.14499999999998,-150.5 C237.14499999999998,-150.5 170.28,-150.5 170.28,-150.5 C152.50594999999998,-150.5 142.2569,-141.88279999999997 139.535,-124.65699999999998 C139.105,-121.95015 138.89,-119.74209999999998 138.89,-118.035 C138.89,-118.035 138.89,-31.44805 138.89,-31.44805 C138.89,-10.48125 150.8569,0 174.79500000000002,0z M287.455,-16.95705 C291.60665,-4.504249999999999 299.13165,1.72 310.02570000000003,1.72 C320.77570000000003,1.72 328.2276,-4.4418999999999995 332.3857,-16.77 C332.3857,-16.77 376.895,-150.5 376.895,-150.5 C376.895,-150.5 342.68420000000003,-150.5 342.68420000000003,-150.5 C342.68420000000003,-150.5 309.5742,-43.5246 309.5742,-43.5246 C309.5742,-43.5246 277.5521,-150.5 277.5521,-150.5 C277.5521,-150.5 243.165,-150.5 243.165,-150.5 C243.165,-150.5 287.455,-16.95705 287.455,-16.95705z M420.325,0 C420.325,0 482.67499999999995,0 482.67499999999995,0 C482.67499999999995,0 482.67499999999995,-32.464999999999996 482.67499999999995,-32.464999999999996 C482.67499999999995,-32.464999999999996 425.05499999999995,-32.464999999999996 425.05499999999995,-32.464999999999996 C419.465,-33.036899999999996 416.66999999999996,-36.40595 416.66999999999996,-42.57 C416.66999999999996,-42.57 416.66999999999996,-59.34 416.66999999999996,-59.34 C416.66999999999996,-59.34 482.67499999999995,-59.34 482.67499999999995,-59.34 C482.67499999999995,-59.34 482.67499999999995,-91.805 482.67499999999995,-91.805 C482.67499999999995,-91.805 416.66999999999996,-91.805 416.66999999999996,-91.805 C416.66999999999996,-91.805 416.66999999999996,-108.57499999999999 416.66999999999996,-108.57499999999999 C416.66999999999996,-113.305 418.53189999999995,-116.2419 422.26,-117.39 C423.11999999999995,-117.82000000000001 423.765,-118.035 424.195,-118.035 C424.195,-118.035 482.67499999999995,-118.035 482.67499999999995,-118.035 C482.67499999999995,-118.035 482.67499999999995,-150.5 482.67499999999995,-150.5 C482.67499999999995,-150.5 415.80999999999995,-150.5 415.80999999999995,-150.5 C398.03594999999996,-150.5 387.78689999999995,-141.88279999999997 385.065,-124.65699999999998 C384.635,-121.95015 384.41999999999996,-119.74209999999998 384.41999999999996,-118.035 C384.41999999999996,-118.035 384.41999999999996,-31.44805 384.41999999999996,-31.44805 C384.41999999999996,-10.48125 396.38689999999997,0 420.325,0z M508.25999999999993,-10.427499999999998 C513.1319,-4.622499999999999 521.375,-1.2169 532.9849999999999,-0.215 C534.5609499999999,-0.07095 536.425,0 538.5749999999999,0 C538.5749999999999,0 598.56,0 598.56,0 C598.56,0 598.775,-32.464999999999996 598.775,-32.464999999999996 C598.775,-32.464999999999996 541.3699999999999,-32.464999999999996 541.3699999999999,-32.464999999999996 C535.9218999999999,-32.464999999999996 533.1999999999999,-34.7569 533.1999999999999,-39.345 C533.1999999999999,-39.345 533.1999999999999,-150.5 533.1999999999999,-150.5 C533.1999999999999,-150.5 500.94999999999993,-150.5 500.94999999999993,-150.5 C500.94999999999993,-150.5 500.94999999999993,-36.765 500.94999999999993,-36.765 C500.94999999999993,-25.010950000000005 503.3859499999999,-16.232499999999998 508.25999999999993,-10.427499999999998z M612.535,-32.464999999999996 C612.535,-30.441849999999995 612.8209499999999,-27.846799999999998 613.395,-24.67555 C615.1149999999999,-15.437000000000001 618.6968999999999,-8.87305 624.145,-4.979399999999999 C629.0169,-1.6597999999999995 636.4,0 646.29,0 C646.29,0 684.3449999999999,0 684.3449999999999,0 C706.99095,0 718.3149999999999,-10.820949999999998 718.3149999999999,-32.464999999999996 C718.3149999999999,-32.464999999999996 718.3149999999999,-118.035 718.3149999999999,-118.035 C718.3149999999999,-139.6769 707.0834,-150.5 684.6266499999999,-150.5 C684.6266499999999,-150.5 646.43405,-150.5 646.43405,-150.5 C636.9934,-150.5 629.69845,-148.7069 624.55135,-145.125 C618.9721,-141.255 615.2525999999999,-134.87595000000002 613.3906999999999,-125.99 C612.8187999999999,-123.1219 612.535,-120.47095 612.535,-118.035 C612.535,-118.035 612.535,-32.464999999999996 612.535,-32.464999999999996z M644.785,-107.715 C644.785,-111.7269 645.5074,-114.45094999999999 646.95435,-115.88499999999999 C648.4013,-117.31689999999999 651.15545,-118.035 655.2125,-118.035 C655.2125,-118.035 675.2010499999999,-118.035 675.2010499999999,-118.035 C679.25595,-118.035 682.0810499999999,-117.2825 683.6741999999999,-115.7775 C685.26735,-114.2725 686.0649999999999,-111.585 686.0649999999999,-107.715 C686.0649999999999,-107.715 686.0649999999999,-41.709999999999994 686.0649999999999,-41.709999999999994 C686.0649999999999,-37.98189999999999 685.2393999999999,-35.50939999999999 683.5925,-34.2925 C681.94345,-33.073449999999994 679.185,-32.464999999999996 675.3149999999999,-32.464999999999996 C675.3149999999999,-32.464999999999996 655.535,-32.464999999999996 655.535,-32.464999999999996 C648.3669,-32.464999999999996 644.785,-35.904999999999994 644.785,-42.785 C644.785,-42.785 644.785,-107.715 644.785,-107.715z M770.13,0 C770.13,0 770.13,-54.18 770.13,-54.18 C770.13,-54.18 815.495,-54.18 815.495,-54.18 C824.525,-54.18 831.7619,-56.830949999999994 837.21,-62.13499999999999 C842.65595,-67.4369 845.38,-74.60499999999999 845.38,-83.63499999999999 C845.38,-83.63499999999999 845.38,-120.615 845.38,-120.615 C845.38,-129.93095 842.37,-137.24095 836.35,-142.545 C830.33,-147.84689999999998 822.59,-150.5 813.13,-150.5 C813.13,-150.5 737.88,-150.5 737.88,-150.5 C737.88,-150.5 737.88,0 737.88,0 C737.88,0 770.13,0 770.13,0z M770.13,-87.29 C770.13,-87.29 770.13,-118.035 770.13,-118.035 C770.13,-118.035 804.745,-118.035 804.745,-118.035 C809.905,-117.31689999999999 812.7,-114.73689999999999 813.13,-110.29499999999999 C813.13,-110.29499999999999 813.13,-95.46 813.13,-95.46 C813.13,-91.87594999999999 812.0550000000001,-89.51095000000001 809.905,-88.365 C808.47095,-87.64689999999999 805.7469,-87.29 801.735,-87.29 C801.735,-87.29 770.13,-87.29 770.13,-87.29z M891.605,0 C891.605,0 891.605,-107.715 891.605,-107.715 C891.605,-107.715 914.61,-16.985 914.61,-16.985 C918.05,-3.3669000000000016 925.21595,3.44 936.11,3.44 C944.56595,3.44 950.58595,-0.28595 954.17,-7.74 C955.74595,-10.8919 956.8919,-13.975 957.61,-16.985 C957.61,-16.985 981.045,-107.715 981.045,-107.715 C981.045,-107.715 981.045,0 981.045,0 C981.045,0 1011.79,0 1011.79,0 C1011.79,0 1011.79,-124.055 1011.79,-124.055 C1011.79,-132.51095 1009.21,-139.3544 1004.05645,-144.5875 C998.9028999999999,-149.81844999999998 992.1046,-152.435 983.6594,-152.435 C980.5074999999999,-152.435 977.5706,-152.14690000000002 974.853,-151.575 C964.97375,-149.4207 958.7452,-143.10829999999999 956.1695,-132.6378 C956.1695,-132.6378 935.26935,-45.7004 935.26935,-45.7004 C935.26935,-45.7004 916.3429,-132.6378 916.3429,-132.6378 C914.04885,-143.10829999999999 907.7407499999999,-149.4207 897.42075,-151.575 C894.55265,-152.14690000000002 891.68455,-152.435 888.81645,-152.435 C880.35835,-152.435 873.545,-149.81844999999998 868.385,-144.5875 C863.225,-139.3544 860.645,-132.51095 860.645,-124.055 C860.645,-124.055 860.645,0 860.645,0 C860.645,0 891.605,0 891.605,0z M1067.26,0 C1067.26,0 1129.6100000000001,0 1129.6100000000001,0 C1129.6100000000001,0 1129.6100000000001,-32.464999999999996 1129.6100000000001,-32.464999999999996 C1129.6100000000001,-32.464999999999996 1071.99,-32.464999999999996 1071.99,-32.464999999999996 C1066.4,-33.036899999999996 1063.605,-36.40595 1063.605,-42.57 C1063.605,-42.57 1063.605,-59.34 1063.605,-59.34 C1063.605,-59.34 1129.6100000000001,-59.34 1129.6100000000001,-59.34 C1129.6100000000001,-59.34 1129.6100000000001,-91.805 1129.6100000000001,-91.805 C1129.6100000000001,-91.805 1063.605,-91.805 1063.605,-91.805 C1063.605,-91.805 1063.605,-108.57499999999999 1063.605,-108.57499999999999 C1063.605,-113.305 1065.4669000000001,-116.2419 1069.195,-117.39 C1070.055,-117.82000000000001 1070.7,-118.035 1071.13,-118.035 C1071.13,-118.035 1129.6100000000001,-118.035 1129.6100000000001,-118.035 C1129.6100000000001,-118.035 1129.6100000000001,-150.5 1129.6100000000001,-150.5 C1129.6100000000001,-150.5 1062.7450000000001,-150.5 1062.7450000000001,-150.5 C1044.9709500000001,-150.5 1034.7219,-141.88279999999997 1032,-124.65699999999998 C1031.57,-121.95015 1031.355,-119.74209999999998 1031.355,-118.035 C1031.355,-118.035 1031.355,-31.44805 1031.355,-31.44805 C1031.355,-10.48125 1043.3219000000001,0 1067.26,0z M1178.845,0 C1178.845,0 1178.845,-109.9295 1178.845,-109.9295 C1178.845,-109.9295 1201.9166500000001,-23.452199999999998 1201.9166500000001,-23.452199999999998 C1206.6402,-5.95335 1216.16255,2.5799999999999996 1230.4794000000002,2.15 C1238.0646000000002,1.8618999999999999 1244.3254000000002,-0.9675000000000004 1249.26395,-6.3425 C1254.2025,-11.7175 1256.6750000000002,-18.275 1256.6750000000002,-26.014999999999997 C1256.6750000000002,-26.014999999999997 1256.6750000000002,-150.5 1256.6750000000002,-150.5 C1256.6750000000002,-150.5 1225.93,-150.5 1225.93,-150.5 C1225.93,-150.5 1225.93,-40.4071 1225.93,-40.4071 C1225.93,-40.4071 1203.14,-127.4907 1203.14,-127.4907 C1199.9859500000002,-139.5307 1194.0369,-147.13095 1185.295,-150.285 C1181.7109500000001,-151.575 1178.1269000000002,-152.22 1174.545,-152.22 C1166.0869,-152.22 1159.4219,-148.99499999999998 1154.5500000000002,-142.545 C1150.1059500000001,-136.6669 1147.8850000000002,-129.3569 1147.8850000000002,-120.615 C1147.8850000000002,-120.615 1147.8850000000002,0 1147.8850000000002,0 C1147.8850000000002,0 1178.845,0 1178.845,0z M1300.9650000000001,-118.035 C1300.9650000000001,-118.035 1300.9650000000001,0 1300.9650000000001,0 C1300.9650000000001,0 1333.2150000000001,0 1333.2150000000001,0 C1333.2150000000001,0 1333.2150000000001,-118.035 1333.2150000000001,-118.035 C1333.2150000000001,-118.035 1365.68,-118.035 1365.68,-118.035 C1365.68,-118.035 1365.68,-150.5 1365.68,-150.5 C1365.68,-150.5 1268.93,-150.5 1268.93,-150.5 C1268.93,-150.5 1268.93,-118.035 1268.93,-118.035 C1268.93,-118.035 1300.9650000000001,-118.035 1300.9650000000001,-118.035z" style="display: inherit;"></path></g><g fill="rgb(219,219,219)" font-size="358" font-family="Baby ground" font-style="normal" font-weight="200" transform="matrix(1,0,0,1,522,186.5)" opacity="1"><path stroke-linecap="butt" stroke-linejoin="round" stroke-miterlimit="4" d=" M27.093439999999998,-170.7839 C8.216099999999999,-160.0618 -1.2243600000000001,-147.06640000000002 -1.2243600000000001,-131.80128000000002 C-1.2243600000000001,-131.80128000000002 -1.2243600000000001,-128.30720000000002 -1.2243600000000001,-128.30720000000002 C-1.2243600000000001,-110.24252000000001 14.448879999999999,-94.7447 45.79894,-81.81016 C65.49252,-75.16926 76.03920000000001,-60.94949999999999 77.43898,-39.15804 C77.43898,-38.22366 77.02728,-36.12578 76.21462000000001,-32.864399999999996 C72.6024,-24.93828 65.61066,-20.97522 55.2394,-20.97522 C55.2394,-20.97522 50.17012,-20.97522 50.17012,-20.97522 C41.66046,-20.97522 34.31788,-23.24852 28.14238,-27.79512 C24.75928,-34.203320000000005 20.80338,-37.40742 16.256780000000003,-37.40742 C10.19584,-37.40742 6.58362,-33.7952 5.42012,-26.57076 C5.42012,-26.57076 5.42012,-25.521819999999998 5.42012,-25.521819999999998 C5.42012,-24.587439999999997 6.000079999999999,-22.90126 7.167159999999999,-20.45254 C16.84032,-6.46906 31.174639999999997,0.5226799999999999 50.17012,0.5226799999999999 C50.17012,0.5226799999999999 55.2394,0.5226799999999999 55.2394,0.5226799999999999 C57.80268,0.5226799999999999 60.0724,0.35084000000000004 62.05572,0 C86.64316,-5.00842 98.94046,-18.587360000000004 98.94046,-40.72966 C97.54068000000001,-67.53312000000001 87.75296,-85.65508 69.57372000000001,-95.09554 C68.40664000000001,-95.56093999999999 67.30042,-96.08362 66.25148,-96.66716 C35.599520000000005,-108.4382 20.27712,-118.98130000000002 20.27712,-128.30720000000002 C20.27712,-128.30720000000002 20.27712,-131.80128000000002 20.27712,-131.80128000000002 C20.27712,-132.96478000000002 20.50982,-133.90274 20.97522,-134.60084 C26.10178,-147.06998 34.199740000000006,-153.30276 45.27268,-153.30276 C45.27268,-153.30276 45.79894,-153.30276 45.79894,-153.30276 C55.4721,-153.30276 65.31710000000001,-147.64994 75.34110000000001,-136.34788 C79.65142000000002,-125.74391999999999 84.54528,-120.44194 90.02268000000001,-120.44194 C95.96548,-120.44194 99.5777,-123.99330000000002 100.86292,-131.10318 C100.86292,-134.60084 98.00608,-140.48278 92.29598,-148.75974 C77.96166000000001,-166.12274 62.463840000000005,-174.80424000000002 45.79894,-174.80424000000002 C40.08884,-174.80424000000002 33.85248,-173.46174 27.093439999999998,-170.7839z M195.06346,-167.46166 C196.92505999999997,-151.02946 197.86302,-135.4135 197.86302,-120.61378 C197.86302,-120.61378 197.86302,-108.2055 197.86302,-108.2055 C197.86302,-98.1815 197.10406,-86.81858 195.58972,-74.11674 C188.71254,-37.87282 180.20646,-19.75444 170.0679,-19.75444 C165.0559,-20.91794 160.91742,-23.36308 157.65604,-27.093439999999998 C142.97088,-38.746340000000004 135.63188,-65.5498 135.63188,-107.50382 C135.63188,-118.34048 136.39084,-136.98512000000002 137.90518,-163.44132000000002 C137.90518,-168.68602000000004 134.6975,-171.89012000000002 128.2893,-173.05720000000002 C128.2893,-173.05720000000002 126.54226,-173.05720000000002 126.54226,-173.05720000000002 C122.8119,-172.5918 120.94672,-171.83284 120.94672,-170.7839 C116.75095999999999,-170.7839 114.65307999999999,-152.71922 114.65307999999999,-116.59344 C114.65307999999999,-116.59344 114.65307999999999,-105.9322 114.65307999999999,-105.9322 C114.65307999999999,-76.91629999999999 118.2653,-53.488780000000006 125.49332,-35.66038 C139.4768,-11.069360000000001 153.63569999999999,1.2243600000000001 167.97001999999998,1.2243600000000001 C167.97001999999998,1.2243600000000001 171.29226,1.2243600000000001 171.29226,1.2243600000000001 C180.96542,1.2243600000000001 189.64692,-3.9021999999999997 197.33676,-14.158900000000001 C212.02192,-36.297619999999995 219.3645,-69.33744 219.3645,-113.27477999999999 C219.3645,-113.27477999999999 219.3645,-116.59344 219.3645,-116.59344 C219.3645,-124.74868 219.01366000000002,-135.70705999999998 218.31556,-149.45784 C217.73201999999998,-167.86978 214.35250000000002,-177.07754 208.177,-177.07754 C208.177,-177.07754 204.15308,-177.07754 204.15308,-177.07754 C200.19002,-177.07754 197.16134,-173.86986000000002 195.06346,-167.46166z M265.32812,-174.4534 C250.2957,-167.34352 240.09628,-156.97584 234.73702,-143.33962 C234.73702,-139.02572 236.24778,-135.8252 239.28003999999999,-133.72732 C239.28003999999999,-131.2786 239.04734,-125.04223999999999 238.58194,-115.02181999999999 C238.58194,-100.6875 239.1619,-87.4594 240.32898,-75.34110000000001 C246.03908,-25.11370000000001 254.31604,0 265.1527,0 C265.1527,0 266.72432,0 266.72432,0 C273.59792,-1.1635 277.0383,-4.134900000000001 277.0383,-8.914200000000001 C277.0383,-8.914200000000001 277.0383,-11.1875 277.0383,-11.1875 C277.0383,-14.216180000000001 275.8748,-16.664900000000003 273.54422,-18.53008 C268.99762,-28.5505 265.09184,-45.03998 261.83046,-67.99852 C266.60618,-69.86012 272.66712,-72.65968 280.0097,-76.39004 C306.46232,-45.85622000000001 319.98040000000003,-30.530240000000003 320.56394,-30.415680000000002 C328.95546,-20.62796 335.18824,-15.734099999999998 339.26944000000003,-15.734099999999998 C345.0941,-15.734099999999998 348.70632,-19.34274 350.10609999999997,-26.57076 C350.10609999999997,-26.57076 349.58342,-29.893 349.58342,-29.893 C349.46528,-31.407339999999998 332.68224,-50.6928 299.23788,-87.75296 C299.23788,-87.75296 299.23788,-88.27564000000001 299.23788,-88.27564000000001 C299.93598,-88.27564000000001 301.2749,-89.26372 303.25822,-91.24704 C314.56028000000003,-105.11238 320.21668,-119.45028 320.21668,-134.25 C320.21668,-134.25 320.21668,-137.57224 320.21668,-137.57224 C320.21668,-143.28233999999998 318.87418,-149.51512000000002 316.19634,-156.27416 C307.22128,-170.25764 294.98484,-177.25296 279.48702000000003,-177.25296 C274.70772,-176.90212 269.98928,-175.96774 265.32812,-174.4534z M261.30778,-141.41716000000002 C266.20164,-148.29076 272.02988,-151.73114 278.78892,-151.73114 C278.78892,-151.73114 281.05863999999997,-151.73114 281.05863999999997,-151.73114 C282.68754,-151.73114 284.20546,-151.49844000000002 285.60524,-151.03304 C294.34402,-148.81702 298.7152,-143.3969 298.7152,-134.77268 C298.7152,-134.77268 298.7152,-131.80128000000002 298.7152,-131.80128000000002 C298.7152,-120.14838 294.57672,-109.94896 286.30334,-101.21018000000001 C278.02638,-95.50008000000001 269.5203,-91.01434 260.78152,-87.75296 C260.78152,-87.75296 260.25884,-90.54894 260.25884,-90.54894 C260.25884,-90.54894 260.25884,-104.18516 260.25884,-104.18516 C260.25884,-120.38108 260.60968,-132.79294000000002 261.30778,-141.41716000000002z M394.49451999999997,-174.4534 C379.46209999999996,-167.34352 369.26267999999993,-156.97584 363.9034199999999,-143.33962 C363.9034199999999,-139.02572 365.41417999999993,-135.8252 368.44643999999994,-133.72732 C368.44643999999994,-131.2786 368.21374,-125.04223999999999 367.7483399999999,-115.02181999999999 C367.7483399999999,-100.6875 368.32829999999996,-87.4594 369.49537999999995,-75.34110000000001 C375.20547999999997,-25.11370000000001 383.48243999999994,0 394.31909999999993,0 C394.31909999999993,0 395.89071999999993,0 395.89071999999993,0 C402.76431999999994,-1.1635 406.20469999999995,-4.134900000000001 406.20469999999995,-8.914200000000001 C406.20469999999995,-8.914200000000001 406.20469999999995,-11.1875 406.20469999999995,-11.1875 C406.20469999999995,-14.216180000000001 405.04119999999995,-16.664900000000003 402.71061999999995,-18.53008 C398.16401999999994,-28.5505 394.25823999999994,-45.03998 390.99685999999997,-67.99852 C395.77257999999995,-69.86012 401.83351999999996,-72.65968 409.17609999999996,-76.39004 C435.62871999999993,-45.85622000000001 449.1468,-30.530240000000003 449.73033999999996,-30.415680000000002 C458.12185999999997,-20.62796 464.35463999999996,-15.734099999999998 468.43584,-15.734099999999998 C474.2605,-15.734099999999998 477.87271999999996,-19.34274 479.2724999999999,-26.57076 C479.2724999999999,-26.57076 478.74981999999994,-29.893 478.74981999999994,-29.893 C478.63167999999996,-31.407339999999998 461.84863999999993,-50.6928 428.40427999999997,-87.75296 C428.40427999999997,-87.75296 428.40427999999997,-88.27564000000001 428.40427999999997,-88.27564000000001 C429.1023799999999,-88.27564000000001 430.44129999999996,-89.26372 432.42461999999995,-91.24704 C443.72668,-105.11238 449.38307999999995,-119.45028 449.38307999999995,-134.25 C449.38307999999995,-134.25 449.38307999999995,-137.57224 449.38307999999995,-137.57224 C449.38307999999995,-143.28233999999998 448.04058,-149.51512000000002 445.36274,-156.27416 C436.38767999999993,-170.25764 424.15124,-177.25296 408.65342,-177.25296 C403.87411999999995,-176.90212 399.15567999999996,-175.96774 394.49451999999997,-174.4534z M390.47417999999993,-141.41716000000002 C395.36803999999995,-148.29076 401.19627999999994,-151.73114 407.95532,-151.73114 C407.95532,-151.73114 410.2250399999999,-151.73114 410.2250399999999,-151.73114 C411.85393999999997,-151.73114 413.37185999999997,-151.49844000000002 414.77163999999993,-151.03304 C423.51041999999995,-148.81702 427.88159999999993,-143.3969 427.88159999999993,-134.77268 C427.88159999999993,-134.77268 427.88159999999993,-131.80128000000002 427.88159999999993,-131.80128000000002 C427.88159999999993,-120.14838 423.74312,-109.94896 415.46973999999994,-101.21018000000001 C407.19277999999997,-95.50008000000001 398.6867,-91.01434 389.94791999999995,-87.75296 C389.94791999999995,-87.75296 389.42524,-90.54894 389.42524,-90.54894 C389.42524,-90.54894 389.42524,-104.18516 389.42524,-104.18516 C389.42524,-120.38108 389.77608,-132.79294000000002 390.47417999999993,-141.41716000000002z M517.0164399999999,-174.62882000000002 C503.0329599999999,-172.53094000000002 496.0412199999999,-168.04520000000002 496.0412199999999,-161.1716 C497.4409999999999,-153.94358000000003 500.6415199999999,-150.33136 505.6535199999999,-150.33136 C505.6535199999999,-150.33136 509.5020199999999,-150.33136 509.5020199999999,-150.33136 C506.3551999999999,-128.88716 504.7799999999999,-115.65906000000001 504.7799999999999,-110.65064000000001 C504.7799999999999,-110.65064000000001 504.7799999999999,-110.12796 504.7799999999999,-110.12796 C504.7799999999999,-110.12796 503.0329599999999,-110.12796 503.0329599999999,-110.12796 C498.6044999999999,-110.12796 495.3968199999999,-106.92028 493.4170799999999,-100.51208 C493.4170799999999,-100.51208 493.4170799999999,-99.28772000000001 493.4170799999999,-99.28772000000001 C495.04597999999993,-92.17784 498.2536599999999,-88.62648 503.0329599999999,-88.62648 C503.0329599999999,-64.50444 505.7107999999999,-45.627100000000006 511.0736399999999,-31.99088 C519.8124199999999,-10.779380000000002 531.52618,-0.17542000000000002 546.21134,-0.17542000000000002 C546.21134,-0.17542000000000002 551.2806199999999,-0.17542000000000002 551.2806199999999,-0.17542000000000002 C556.1744799999999,-0.17542000000000002 561.2437599999998,-1.1634999999999998 566.4884599999999,-3.14682 C590.2632399999999,-14.334319999999998 602.14884,-23.01224 602.14884,-29.19132 C602.14884,-29.19132 602.14884,-30.24026 602.14884,-30.24026 C601.2144599999999,-37.4647 597.83494,-41.0805 592.01028,-41.0805 C592.01028,-41.0805 587.9899399999999,-41.0805 587.9899399999999,-41.0805 C571.0923399999999,-27.795119999999997 558.44778,-21.150640000000003 550.05626,-21.150640000000003 C546.6731599999999,-21.61604 544.0525999999999,-22.375 542.1909999999999,-23.42394 C530.41996,-31.113780000000002 524.5344399999999,-52.672540000000005 524.5344399999999,-88.10022000000001 C524.5344399999999,-88.10022000000001 524.5344399999999,-89.67542 524.5344399999999,-89.67542 C524.5344399999999,-89.67542 527.5058399999999,-90.37352 527.5058399999999,-90.37352 C534.1467399999999,-90.37352 541.1384799999998,-90.54894 548.48106,-90.89977999999999 C548.48106,-90.89977999999999 561.9418599999999,-89.67542 561.9418599999999,-89.67542 C566.9502799999999,-89.67542 570.1579599999999,-93.11222000000001 571.5577399999999,-99.9894 C571.5577399999999,-99.9894 571.5577399999999,-101.03834 571.5577399999999,-101.03834 C571.5577399999999,-108.26278 565.5504999999999,-111.875 553.5503399999999,-111.875 C553.5503399999999,-111.875 526.2814799999999,-111.875 526.2814799999999,-111.875 C526.2814799999999,-116.53616 528.2612199999999,-130.69148 532.2242799999999,-154.35170000000002 C532.2242799999999,-156.21330000000003 537.35084,-157.14768 547.6075399999999,-157.14768 C547.6075399999999,-157.14768 552.6768199999999,-157.14768 552.6768199999999,-157.14768 C558.7341799999999,-157.14768 566.8357199999999,-155.45792 576.9742799999999,-152.0784 C583.0316399999999,-152.0784 586.64744,-155.63334000000003 587.8145199999999,-162.74322 C587.8145199999999,-165.42106 586.64744,-168.10247999999999 584.3168599999999,-170.7839 C575.3417999999999,-176.0286 564.0397399999999,-178.64916 550.40352,-178.64916 C540.37952,-178.64916 529.2528799999999,-177.30666 517.0164399999999,-174.62882000000002z M650.05998,-172.00826 C650.05998,-172.00826 655.13284,-157.14768 655.13284,-157.14768 C651.63518,-151.31944000000001 646.7986,-141.99712 640.6230999999999,-129.18072 C623.60736,-85.47966000000001 615.10128,-44.75 615.10128,-6.99174 C615.10128,-1.74704 618.59894,1.6897600000000002 625.5906799999999,3.3222400000000003 C630.2518399999999,3.3222400000000003 633.92134,1.0489400000000002 636.60276,-3.49766 C638.1170999999999,-31.11736 639.68872,-47.83596 641.3212,-53.6642 C641.3212,-54.362300000000005 655.2474,-55.70122 683.0998,-57.68454 C684.0305999999999,-56.51746 686.18576,-46.90516 689.56886,-28.844060000000002 C692.9483799999999,-10.779380000000002 697.6095399999999,-1.74704 703.55234,-1.74704 C703.55234,-1.74704 706.34832,-1.74704 706.34832,-1.74704 C712.9892199999999,-3.14682 716.31146,-6.232780000000001 716.31146,-11.012080000000001 C716.31146,-11.012080000000001 716.31146,-13.28538 716.31146,-13.28538 C716.31146,-14.09804 712.9892199999999,-29.484880000000004 706.34832,-59.43516 C706.34832,-59.43516 706.34832,-59.957840000000004 706.34832,-59.957840000000004 C706.34832,-59.957840000000004 709.8459799999999,-59.957840000000004 709.8459799999999,-59.957840000000004 C715.6706399999999,-59.957840000000004 719.34372,-62.98651999999999 720.85806,-69.04746 C720.85806,-69.04746 720.85806,-72.01886 720.85806,-72.01886 C719.45828,-78.42706 716.36874,-81.63474000000001 711.5930199999999,-81.63474000000001 C710.42594,-81.63474000000001 706.75644,-81.45931999999999 700.5809399999999,-81.10848 C700.5809399999999,-81.10848 700.05468,-81.10848 700.05468,-81.10848 C686.41846,-127.48737999999999 678.0878,-155.11066 675.05912,-163.96758 C672.6104,-176.90212 667.9492399999999,-183.37117999999998 661.07564,-183.37117999999998 C655.36554,-183.37117999999998 651.6888799999999,-179.58354 650.05998,-172.00826z M676.4589,-78.13708 C676.4589,-78.13708 676.4589,-77.6144 676.4589,-77.6144 C676.4589,-77.6144 644.81886,-75.34110000000001 644.81886,-75.34110000000001 C650.4144,-95.73278 656.0027799999999,-111.98956 661.59832,-124.11144 C662.76182,-123.2952 667.72012,-107.96921999999999 676.4589,-78.13708z M741.31418,-169.03686 C741.31418,-169.03686 747.0851399999999,-24.82372 747.0851399999999,-24.82372 C739.50986,-23.19124 735.72222,-19.983560000000004 735.72222,-15.207840000000001 C735.72222,-15.207840000000001 735.72222,-11.8856 735.72222,-11.8856 C735.72222,-7.571699999999999 738.92274,-4.54302 745.33452,-2.79598 C746.38346,-2.79598 747.8978,-2.9714000000000005 749.88112,-3.3222400000000003 C753.02794,-0.6408200000000002 755.5339399999999,0.6981 757.3991199999999,0.6981 C763.4564799999999,0.6981 767.18684,-2.1551600000000004 768.5866199999999,-7.86526 C768.5866199999999,-7.86526 817.1815399999999,-18.17924 817.1815399999999,-18.17924 C831.98126,-19.80814 839.38112,-24.354740000000003 839.38112,-31.81546 C839.38112,-31.81546 839.38112,-32.338139999999996 839.38112,-32.338139999999996 C839.38112,-38.04824 835.94074,-41.427760000000006 829.06714,-42.4767 C829.06714,-42.4767 828.0182,-42.4767 828.0182,-42.4767 C828.0182,-42.4767 768.5866199999999,-30.5911 768.5866199999999,-30.5911 C768.23578,-34.90142 766.31332,-79.36144000000002 762.81566,-163.96758 C762.81566,-174.2207 759.26072,-179.35084 752.15442,-179.35084 C744.9264,-177.8365 741.31418,-174.39612 741.31418,-169.03686z" style="display: inherit;"></path></g><g fill="rgb(219,219,219)" font-size="114" font-family="Continuum Bold" font-style="normal" font-weight="200" transform="matrix(1,0,0,0.8355,1407.641,77.816)" opacity="1"><path stroke-linecap="butt" stroke-linejoin="round" stroke-miterlimit="4" d=" M98.838,-26.447999999999997 C98.838,-26.447999999999997 98.838,-75.25026 98.838,-75.25026 C98.838,-76.69121999999999 98.36034,-77.96118 97.40616,-79.06241999999999 C96.45197999999999,-80.16137999999998 95.28804,-80.71199999999999 93.91434,-80.71199999999999 C91.31741999999998,-80.71199999999999 89.2563,-79.08521999999998 87.72984,-75.83279999999999 C87.72984,-75.83279999999999 72.08333999999999,-41.435579999999995 72.08333999999999,-41.435579999999995 C72.08333999999999,-41.435579999999995 56.544,-75.01199999999999 56.544,-75.01199999999999 C55.776779999999995,-76.75962 55.161179999999995,-77.89961999999998 54.70176,-78.43199999999999 C53.54921999999999,-79.95161999999999 52.167539999999995,-80.71199999999999 50.55558,-80.71199999999999 C49.173899999999996,-80.71199999999999 47.96549999999999,-80.199 46.92923999999999,-79.173 C45.892979999999994,-78.14699999999999 45.29676,-76.94999999999999 45.144,-75.582 C45.144,-75.582 45.144,-26.447999999999997 45.144,-26.447999999999997 C45.144,-26.447999999999997 54.833999999999996,-26.447999999999997 54.833999999999996,-26.447999999999997 C54.833999999999996,-26.447999999999997 54.833999999999996,-55.63541999999999 54.833999999999996,-55.63541999999999 C54.833999999999996,-55.63541999999999 65.95812,-31.327199999999998 65.95812,-31.327199999999998 C65.95812,-31.327199999999998 66.98754,-29.738039999999994 66.98754,-29.738039999999994 C68.13096,-27.163919999999997 69.84894,-25.877999999999997 72.13919999999999,-25.877999999999997 C73.28262,-25.877999999999997 74.35193999999998,-26.31462 75.34373999999998,-27.189 C76.33554,-28.062239999999996 76.94543999999999,-28.76562 77.17571999999998,-29.298 C77.17571999999998,-29.298 89.148,-55.403999999999996 89.148,-55.403999999999996 C89.148,-55.403999999999996 89.148,-26.447999999999997 89.148,-26.447999999999997 C89.148,-26.447999999999997 98.838,-26.447999999999997 98.838,-26.447999999999997z M42.635999999999996,-70.11 C42.635999999999996,-70.11 42.635999999999996,-79.8 42.635999999999996,-79.8 C42.635999999999996,-79.8 1.8239999999999998,-79.8 1.8239999999999998,-79.8 C1.8239999999999998,-79.8 1.8239999999999998,-70.11 1.8239999999999998,-70.11 C1.8239999999999998,-70.11 17.328,-70.11 17.328,-70.11 C17.328,-70.11 17.328,-26.561999999999998 17.328,-26.561999999999998 C17.328,-26.561999999999998 27.017999999999997,-26.561999999999998 27.017999999999997,-26.561999999999998 C27.017999999999997,-26.561999999999998 27.017999999999997,-70.11 27.017999999999997,-70.11 C27.017999999999997,-70.11 42.635999999999996,-70.11 42.635999999999996,-70.11z" style="display: inherit;"></path></g><g transform="matrix(0.9998,0.0175,0.0175,-0.9998,120,34)" opacity="1" style="user-select: none;"><g opacity="1" transform="matrix(1,0,0,1,0,0)"><path stroke-linecap="round" stroke-linejoin="miter" fill-opacity="0" stroke-miterlimit="8" stroke="rgb(220,220,220)" stroke-opacity="1" stroke-width="28" d="M0 0 M157.832,-165.268 C142.68099999999998,-207.108 69.50900000000001,-154.973 121.614,-120.928 C149.941,-102.42 171.929,-109.015 180.542,-113.194 C212.571,-128.732 219.515,-142.191 219.999,-164.217 C220.548,-189.216 188.778,-218.66000000000003 164.469,-225.175 C140.563,-231.58200000000002 117.56700000000001,-231.98299999999998 89.164,-218.45 C71.82300000000001,-210.18699999999998 48.809000000000005,-189.17700000000002 47.075,-147.132 C45.984,-120.678 60.899,-95.244 75.828,-81.483 C105.462,-54.168000000000006 124.38899999999998,-49.836999999999996 163.248,-47.742 C189.52599999999998,-46.324999999999996 218.883,-57.506 242.221,-76.87 C269.274,-99.316 280.53400000000005,-114.12099999999998 280.583,-149.266 C280.63000000000005,-183.559 280.531,-214.232 254.571,-236.578 C226.091,-261.094 180.394,-278.882 146.951,-281.413 C111.475,-284.098 72.307,-274.78000000000003 47.745,-259.156 C18.243,-240.39000000000001 -12.127,-205.624 -13.192,-154.837 C-13.833,-124.261 11.926000000000002,-60.322 31.791,-33.03 C47.702,-11.169 89.31199999999998,11.560000000000002 131.838,18.376 C159.923,22.877000000000002 240.077,21.893 265.88,7.389 C298.234,-10.797 316.697,-32.257000000000005 332.865,-54.545 C348.379,-75.932 350.989,-99.32300000000001 353.465,-129.371 C355.941,-159.419 350.025,-198.921 340.791,-225.304 C333.193,-247.013 313.87399999999997,-276.565 287.652,-296.915 C256.132,-321.377 237.863,-333.899 179.89,-341.09 C140.19799999999998,-346.013 75.10499999999999,-343.289 46.355,-332.8 C16.118,-321.76800000000003 -8.535,-313.197 -27.856,-289.714 C-53.784000000000006,-258.2 -64.78299999999999,-242.168 -76.067,-197.358 C-84.979,-161.966 -87.346,-95.539 -74.924,-62.317 C-62.50200000000001,-29.095 -39.815,5.069000000000001 -26.31,17.544"></path></g></g></g></svg>