<?xml version="1.0" encoding="utf-8"?>
<svg id="master-artboard" viewBox="0 0 366.436279296875 345.2127380371094" version="1.1" xmlns="http://www.w3.org/2000/svg" x="0px" y="0px" style="enable-background:new 0 0 1400 980;" width="366.436279296875px" height="345.2127380371094px"><rect id="ee-background" x="0" y="0" width="366.436279296875" height="345.2127380371094" style="fill: white; fill-opacity: 0; pointer-events: none;"/><defs><style id="ee-google-fonts">@import url(https://fonts.googleapis.com/css?family=Fjalla+One:400|Roboto:100,100italic,300,300italic,400,400italic,500,500italic,700,700italic,900,900italic);</style><clipPath id="animationMask_EZ16NoH2jN"><path d="M 0 0 H 1900 V 400 H 0 V 0 Z"/></clipPath><clipPath id="path-1"><path d="M 0 0 H 1900 V 400 H 0 V 0 Z"/></clipPath></defs>

































































































<g transform="matrix(0.736842155456543, 0, 0, 0.736842155456543, 0, 27.0465087890625)"><g fill="rgb(219,219,219)" font-size="358" font-family="Baby ground" font-style="normal" font-weight="200" transform="matrix(0.9999999999999999, 0, 0, 0.9999999999999999, 522, 186.5)" opacity="1"/><g transform="matrix(0.9998000264167786, 0.017500000074505806, 0.017500000074505806, -0.9998000264167786, 120, 34)" opacity="1" style="user-select: none;"><g opacity="1" transform="matrix(1,0,0,1,0,0)"><path stroke-linecap="round" stroke-linejoin="miter" fill-opacity="0" stroke-miterlimit="8" stroke="rgb(220,220,220)" stroke-opacity="1" stroke-width="28" d="M0 0 M157.832,-165.268 C142.68099999999998,-207.108 69.50900000000001,-154.973 121.614,-120.928 C149.941,-102.42 171.929,-109.015 180.542,-113.194 C212.571,-128.732 219.515,-142.191 219.999,-164.217 C220.548,-189.216 188.778,-218.66000000000003 164.469,-225.175 C140.563,-231.58200000000002 117.56700000000001,-231.98299999999998 89.164,-218.45 C71.82300000000001,-210.18699999999998 48.809000000000005,-189.17700000000002 47.075,-147.132 C45.984,-120.678 60.899,-95.244 75.828,-81.483 C105.462,-54.168000000000006 124.38899999999998,-49.836999999999996 163.248,-47.742 C189.52599999999998,-46.324999999999996 218.883,-57.506 242.221,-76.87 C269.274,-99.316 280.53400000000005,-114.12099999999998 280.583,-149.266 C280.63000000000005,-183.559 280.531,-214.232 254.571,-236.578 C226.091,-261.094 180.394,-278.882 146.951,-281.413 C111.475,-284.098 72.307,-274.78000000000003 47.745,-259.156 C18.243,-240.39000000000001 -12.127,-205.624 -13.192,-154.837 C-13.833,-124.261 11.926000000000002,-60.322 31.791,-33.03 C47.702,-11.169 89.31199999999998,11.560000000000002 131.838,18.376 C159.923,22.877000000000002 240.077,21.893 265.88,7.389 C298.234,-10.797 316.697,-32.257000000000005 332.865,-54.545 C348.379,-75.932 350.989,-99.32300000000001 353.465,-129.371 C355.941,-159.419 350.025,-198.921 340.791,-225.304 C333.193,-247.013 313.87399999999997,-276.565 287.652,-296.915 C256.132,-321.377 237.863,-333.899 179.89,-341.09 C140.19799999999998,-346.013 75.10499999999999,-343.289 46.355,-332.8 C16.118,-321.76800000000003 -8.535,-313.197 -27.856,-289.714 C-53.784000000000006,-258.2 -64.78299999999999,-242.168 -76.067,-197.358 C-84.979,-161.966 -87.346,-95.539 -74.924,-62.317 C-62.50200000000001,-29.095 -39.815,5.069000000000001 -26.31,17.544"/></g></g></g></svg>